<?xml version="1.0" encoding="UTF-8" standalone="no"?>
<!DOCTYPE svg PUBLIC "-//W3C//DTD SVG 1.1//EN" "http://www.w3.org/Graphics/SVG/1.1/DTD/svg11.dtd">
<svg width="400" height="400" viewBox="0 0 256 256" version="1.1" xmlns="http://www.w3.org/2000/svg" xmlns:xlink="http://www.w3.org/1999/xlink" xml:space="preserve" xmlns:serif="http://www.serif.com/" style="fill-rule:evenodd;clip-rule:evenodd;stroke-linecap:round;stroke-linejoin:round;">
    <g id="g3302" transform="matrix(0.990825,0,0,0.990825,-72.3975,-676.575)">
        <g transform="matrix(1.54669,0,0,1.85936,50.4621,643.143)">
            <rect x="14.616" y="21.35" width="167.047" height="138.957" style="fill:none;"/>
        </g>
        <g id="path2996" transform="matrix(1.02871,0,0,1.02871,-65.7529,604.801)">
            <path d="M371.429,201.257L371.429,201.324C371.429,262.256 321.289,312.396 260.357,312.396C199.425,312.396 149.286,262.256 149.286,201.324L149.286,201.257C149.286,140.325 199.425,90.186 260.357,90.186C321.289,90.186 371.429,140.325 371.429,201.257Z" style="fill:white;fill-rule:nonzero;stroke:black;stroke-width:0.97px;"/>
        </g>
        <g id="path3015" transform="matrix(1.4225,0.20696,-0.20696,1.4225,-334.775,370.421)">
            <path d="M420.529,265.519L441.501,324.621L418.893,266.125L433.573,327.096L417.203,266.557L425.429,328.728L415.478,266.81L417.16,329.5L413.735,266.881L408.855,329.404L411.994,266.77L400.606,328.44L410.275,266.477L392.503,326.619L408.596,266.006L384.634,323.96L406.975,265.362L377.087,320.494L405.43,264.552L369.943,316.258L403.978,263.585L363.281,311.299L402.636,262.472L357.174,305.67L401.417,261.224L351.688,299.434L400.335,259.856L346.885,292.658L399.402,258.382L342.816,285.418L398.629,256.819L339.526,277.792L398.022,255.184L337.052,269.864L397.591,253.494L335.42,261.72L397.338,251.768L334.648,253.451L397.267,250.026L334.744,245.146L397.378,248.285L335.708,236.897L397.671,246.566L337.529,228.793L398.142,244.886L340.187,220.925L398.786,243.265L343.653,213.377L399.596,241.721L347.89,206.233L400.563,240.269L352.849,199.571L401.676,238.927L358.478,193.464L402.924,237.708L364.714,187.979L404.292,236.626L371.49,183.176L405.765,235.693L378.73,179.107L407.329,234.919L386.356,175.817L408.964,234.313L394.284,173.343L410.654,233.881L402.428,171.71L412.38,233.629L410.697,170.938L414.122,233.558L419.002,171.035L415.863,233.669L427.251,171.999L417.582,233.962L435.354,173.82L419.262,234.433L443.223,176.478L420.882,235.077L450.771,179.944L422.427,235.887L457.914,184.18L423.879,236.854L464.576,189.14L425.221,237.967L470.684,194.769L426.44,239.214L476.169,201.005L427.522,240.582L480.972,207.78L428.455,242.056L485.041,215.021L429.229,243.619L488.331,222.647L429.835,245.255L490.805,230.575L430.266,246.945L492.437,238.718L430.519,248.67L493.21,246.988L430.59,250.413L493.113,255.293L430.479,252.154L492.149,263.542L430.186,253.873L490.328,271.645L429.715,255.552L487.67,279.514L429.071,257.173L484.204,287.061L428.261,258.718L479.968,294.205L427.294,260.17L475.008,300.867L426.181,261.512L469.379,306.974L424.933,262.731L463.143,312.46L423.565,263.813L456.368,317.263L422.092,264.746L449.127,321.332L420.529,265.519Z" style="fill:none;fill-rule:nonzero;stroke:black;stroke-width:0.7px;"/>
        </g>
        <g id="path2996-3" transform="matrix(0.97448,0,0,0.97448,-51.2766,616.503)">
            <path d="M371.429,201.257L371.429,201.324C371.429,262.256 321.289,312.396 260.357,312.396C199.425,312.396 149.286,262.256 149.286,201.324L149.286,201.257C149.286,140.325 199.425,90.186 260.357,90.186C321.289,90.186 371.429,140.325 371.429,201.257Z" style="fill:white;fill-rule:nonzero;stroke:black;stroke-width:1.03px;"/>
        </g>
        <g id="text3784" transform="matrix(1,0,0,1,50.5076,633.366)">
            <path id="path3883" d="M150.699,97.774L150.699,96.942L149.739,96.942C146.987,96.942 146.923,96.59 146.923,95.438L146.923,77.326C146.923,76.654 146.891,76.622 146.443,76.622C145.195,78.126 143.307,78.606 141.515,78.67C141.419,78.67 141.259,78.67 141.227,78.734C141.195,78.798 141.195,78.862 141.195,79.534C142.187,79.534 143.851,79.342 145.131,78.574L145.131,95.438C145.131,96.558 145.067,96.942 142.315,96.942L141.355,96.942L141.355,97.774L146.027,97.71L150.699,97.774" style="fill-rule:nonzero;stroke:black;stroke-width:1px;stroke-linecap:butt;stroke-linejoin:miter;"/>
            <path id="path3885" d="M166.443,92.814L165.867,92.814C165.547,95.086 165.291,95.47 165.163,95.662C165.003,95.918 162.699,95.918 162.251,95.918L156.107,95.918L162.219,89.774C164.171,87.918 166.443,85.742 166.443,82.574C166.443,78.798 163.435,76.622 160.075,76.622C156.555,76.622 154.411,79.726 154.411,82.606C154.411,83.854 155.339,84.014 155.723,84.014C156.043,84.014 157.003,83.822 157.003,82.702C157.003,81.71 156.171,81.422 155.723,81.422C155.531,81.422 155.339,81.454 155.211,81.518C155.819,78.798 157.675,77.454 159.627,77.454C162.411,77.454 164.235,79.662 164.235,82.574C164.235,85.358 162.603,87.758 160.779,89.838L154.411,97.038L154.411,97.774L165.675,97.774L166.443,92.814" style="fill-rule:nonzero;stroke:black;stroke-width:1px;stroke-linecap:butt;stroke-linejoin:miter;"/>
        </g>
        <g id="text3788" transform="matrix(1,0,0,1,50.5076,633.366)">
            <path id="path3880" d="M202.717,112.639L202.717,111.807L201.757,111.807C199.005,111.807 198.941,111.455 198.941,110.303L198.941,92.191C198.941,91.519 198.909,91.487 198.461,91.487C197.213,92.991 195.325,93.471 193.533,93.535C193.437,93.535 193.277,93.535 193.245,93.599C193.213,93.663 193.213,93.727 193.213,94.399C194.205,94.399 195.869,94.207 197.149,93.439L197.149,110.303C197.149,111.423 197.085,111.807 194.333,111.807L193.373,111.807L193.373,112.639L198.045,112.575L202.717,112.639" style="fill-rule:nonzero;stroke:black;stroke-width:1px;stroke-linecap:butt;stroke-linejoin:miter;"/>
        </g>
        <g id="text3796" transform="matrix(1,0,0,1,50.5076,633.366)">
            <path id="path3877" d="M235.517,138.993L234.941,138.993C234.621,141.265 234.365,141.649 234.237,141.841C234.077,142.097 231.773,142.097 231.325,142.097L225.181,142.097L231.293,135.953C233.245,134.097 235.517,131.921 235.517,128.753C235.517,124.977 232.509,122.801 229.149,122.801C225.629,122.801 223.485,125.905 223.485,128.785C223.485,130.033 224.413,130.193 224.797,130.193C225.117,130.193 226.077,130.001 226.077,128.881C226.077,127.889 225.245,127.601 224.797,127.601C224.605,127.601 224.413,127.633 224.285,127.697C224.893,124.977 226.749,123.633 228.701,123.633C231.485,123.633 233.309,125.841 233.309,128.753C233.309,131.537 231.677,133.937 229.853,136.017L223.485,143.217L223.485,143.953L234.749,143.953L235.517,138.993" style="fill-rule:nonzero;stroke:black;stroke-width:1px;stroke-linecap:butt;stroke-linejoin:miter;"/>
        </g>
        <g id="text3800" transform="matrix(1,0,0,1,50.5076,633.366)">
            <path id="path3874" d="M252.488,181.349C252.488,178.245 249.928,176.005 246.888,175.653C249.32,175.141 251.656,172.965 251.656,170.053C251.656,167.557 249.128,165.733 246.248,165.733C243.336,165.733 240.776,167.525 240.776,170.085C240.776,171.205 241.608,171.397 242.024,171.397C242.696,171.397 243.272,170.981 243.272,170.149C243.272,169.317 242.696,168.901 242.024,168.901C241.896,168.901 241.736,168.901 241.608,168.965C242.536,166.853 245.064,166.469 246.184,166.469C247.304,166.469 249.416,167.013 249.416,170.085C249.416,170.981 249.288,172.581 248.2,173.989C247.24,175.237 246.152,175.301 245.096,175.397C244.936,175.397 244.2,175.461 244.072,175.461C243.848,175.493 243.72,175.525 243.72,175.749C243.72,175.973 243.752,176.005 244.392,176.005L245.96,176.005C248.808,176.005 250.056,178.469 250.056,181.317C250.056,185.157 248.008,186.629 246.152,186.629C244.456,186.629 241.704,185.797 240.84,183.333C241,183.397 241.16,183.397 241.32,183.397C242.088,183.397 242.664,182.885 242.664,182.053C242.664,181.125 241.96,180.709 241.32,180.709C240.776,180.709 239.944,180.965 239.944,182.149C239.944,185.093 242.824,187.397 246.216,187.397C249.768,187.397 252.488,184.613 252.488,181.349" style="fill-rule:nonzero;stroke:black;stroke-width:1px;stroke-linecap:butt;stroke-linejoin:miter;"/>
        </g>
        <g id="text3806" transform="matrix(1,0,0,1,50.5076,633.366)">
            <path id="path3871" d="M236.215,227.778L236.215,226.946L232.951,226.946L232.951,212.514C232.951,211.842 232.919,211.81 232.343,211.81L222.839,226.946L222.839,227.778L231.095,227.778L231.095,230.914C231.095,232.066 231.031,232.386 228.791,232.386L228.183,232.386L228.183,233.218C229.207,233.154 230.935,233.154 232.023,233.154C233.111,233.154 234.839,233.154 235.863,233.218L235.863,232.386L235.255,232.386C233.015,232.386 232.951,232.066 232.951,230.914L232.951,227.778L236.215,227.778M231.191,226.946L223.479,226.946L231.191,214.626L231.191,226.946" style="fill-rule:nonzero;stroke:black;stroke-width:1px;stroke-linecap:butt;stroke-linejoin:miter;"/>
        </g>
        <g id="text3816" transform="matrix(1,0,0,1,50.5076,633.366)">
            <path id="path3868" d="M205.905,258.203C205.905,254.363 203.409,251.387 200.305,251.387C198.673,251.387 197.297,251.995 196.209,253.147L196.209,245.947C196.529,246.075 197.841,246.491 199.185,246.491C202.161,246.491 203.793,244.891 204.721,243.963C204.721,243.707 204.721,243.547 204.529,243.547C204.529,243.547 204.433,243.547 204.177,243.675C203.057,244.155 201.745,244.539 200.145,244.539C199.185,244.539 197.745,244.411 196.177,243.707C195.825,243.547 195.729,243.547 195.729,243.547C195.569,243.547 195.537,243.579 195.537,244.219L195.537,253.499C195.537,254.075 195.537,254.235 195.857,254.235C196.017,254.235 196.081,254.171 196.241,253.947C197.265,252.507 198.673,251.899 200.273,251.899C201.393,251.899 203.793,252.603 203.793,258.075C203.793,259.099 203.793,260.955 202.833,262.427C202.033,263.739 200.785,264.411 199.409,264.411C197.297,264.411 195.153,262.939 194.577,260.475C194.705,260.507 194.961,260.571 195.089,260.571C195.505,260.571 196.305,260.347 196.305,259.355C196.305,258.491 195.697,258.139 195.089,258.139C194.353,258.139 193.873,258.587 193.873,259.483C193.873,262.267 196.081,265.179 199.473,265.179C202.769,265.179 205.905,262.331 205.905,258.203" style="fill-rule:nonzero;stroke:black;stroke-width:1px;stroke-linecap:butt;stroke-linejoin:miter;"/>
        </g>
        <g id="text3820" transform="matrix(1,0,0,1,50.5076,633.366)">
            <path id="path3865" d="M157.62,270.59C157.62,266.59 155.028,263.678 151.764,263.678C149.812,263.678 148.372,264.958 147.572,267.198L147.572,266.11C147.572,258.462 151.156,256.734 153.236,256.734C153.908,256.734 155.54,256.862 156.18,258.11C155.668,258.11 154.708,258.11 154.708,259.23C154.708,260.094 155.412,260.382 155.86,260.382C156.148,260.382 157.012,260.254 157.012,259.166C157.012,257.15 155.412,255.998 153.204,255.998C149.396,255.998 145.396,259.966 145.396,267.038C145.396,275.742 149.012,277.662 151.572,277.662C154.676,277.662 157.62,274.878 157.62,270.59M155.444,270.558C155.444,272.286 155.444,273.566 154.772,274.846C154.068,276.158 153.044,276.894 151.572,276.894C147.636,276.894 147.636,271.006 147.636,269.822C147.636,267.518 148.724,264.19 151.7,264.19C152.244,264.19 153.812,264.19 154.868,266.398C155.444,267.646 155.444,268.958 155.444,270.558" style="fill-rule:nonzero;stroke:black;stroke-width:1px;stroke-linecap:butt;stroke-linejoin:miter;"/>
        </g>
        <g id="text3832" transform="matrix(1,0,0,1,50.5076,633.366)">
            <path id="path3862" d="M113.535,245.196L113.535,244.492L106.015,244.492C102.271,244.492 102.207,244.076 102.079,243.468L101.503,243.468L100.575,249.452L101.151,249.452C101.247,248.844 101.471,247.212 101.855,246.604C102.047,246.348 104.415,246.348 104.959,246.348L111.999,246.348L108.447,251.628C106.079,255.18 104.447,259.98 104.447,264.172C104.447,264.556 104.447,265.644 105.599,265.644C106.751,265.644 106.751,264.556 106.751,264.14L106.751,262.668C106.751,257.42 107.647,253.964 109.119,251.756L113.535,245.196" style="fill-rule:nonzero;stroke:black;stroke-width:1px;stroke-linecap:butt;stroke-linejoin:miter;"/>
        </g>
        <g id="text3836" transform="matrix(1,0,0,1,50.5076,633.366)">
            <path id="path3859" d="M79.146,228.136C79.146,225.224 77.194,223.88 75.914,223.016C75.466,222.696 75.21,222.536 74.25,221.832C76.266,220.808 78.314,219.272 78.314,216.808C78.314,213.896 75.498,212.2 72.906,212.2C69.994,212.2 67.434,214.312 67.434,217.224C67.434,218.024 67.626,219.4 68.874,220.616C69.194,220.936 70.538,221.896 71.402,222.504C69.962,223.24 66.602,225 66.602,228.52C66.602,231.816 69.738,233.864 72.842,233.864C76.266,233.864 79.146,231.4 79.146,228.136M77.226,216.808C77.226,219.784 73.898,221.48 73.738,221.48C73.738,221.48 73.674,221.48 73.418,221.288L70.058,219.016C69.802,218.856 68.522,217.864 68.522,216.36C68.522,214.408 70.538,212.936 72.842,212.936C75.37,212.936 77.226,214.728 77.226,216.808M77.962,228.936C77.962,231.304 75.594,233.096 72.906,233.096C69.994,233.096 67.786,231.016 67.786,228.488C67.786,225.96 69.738,223.848 71.946,222.856L75.946,225.576C76.426,225.928 77.962,226.984 77.962,228.936" style="fill-rule:nonzero;stroke:black;stroke-width:1px;stroke-linecap:butt;stroke-linejoin:miter;"/>
        </g>
        <g id="text3840" transform="matrix(1,0,0,1,50.5076,633.366)">
            <path id="path3856" d="M66.888,176.325C66.888,167.557 63.304,165.733 60.872,165.733C57.704,165.733 54.664,168.517 54.664,172.805C54.664,176.773 57.256,179.717 60.52,179.717C63.208,179.717 64.392,177.221 64.712,176.165L64.712,177.413C64.712,184.453 61.8,186.629 59.4,186.629C58.664,186.629 56.872,186.533 56.136,185.285C56.968,185.413 57.576,184.965 57.576,184.165C57.576,183.301 56.872,183.013 56.424,183.013C56.136,183.013 55.272,183.141 55.272,184.229C55.272,186.405 57.16,187.397 59.464,187.397C63.144,187.397 66.888,183.365 66.888,176.325M64.648,173.541C64.648,175.813 63.624,179.205 60.584,179.205C59.72,179.205 58.504,179.045 57.512,177.125C56.84,175.877 56.84,174.405 56.84,172.837C56.84,170.949 56.84,169.637 57.736,168.229C58.184,167.557 59.016,166.469 60.872,166.469C64.648,166.469 64.648,172.261 64.648,173.541" style="fill-rule:nonzero;stroke:black;stroke-width:1px;stroke-linecap:butt;stroke-linejoin:miter;"/>
        </g>
        <g id="text3848" transform="matrix(1,0,0,1,50.5076,633.366)">
            <path id="path3851" d="M75.506,143.448L75.506,142.616L74.546,142.616C71.794,142.616 71.73,142.264 71.73,141.112L71.73,123C71.73,122.328 71.698,122.296 71.25,122.296C70.002,123.8 68.114,124.28 66.322,124.344C66.226,124.344 66.066,124.344 66.034,124.408C66.002,124.472 66.002,124.536 66.002,125.208C66.994,125.208 68.658,125.016 69.938,124.248L69.938,141.112C69.938,142.232 69.874,142.616 67.122,142.616L66.162,142.616L66.162,143.448L70.834,143.384L75.506,143.448" style="fill-rule:nonzero;stroke:black;stroke-width:1px;stroke-linecap:butt;stroke-linejoin:miter;"/>
            <path id="path3853" d="M91.345,133.176C91.345,131.224 91.313,127.896 89.969,125.336C88.785,123.096 86.897,122.296 85.233,122.296C83.697,122.296 81.745,123 80.529,125.304C79.249,127.704 79.121,130.68 79.121,133.176C79.121,135 79.153,137.784 80.145,140.216C81.521,143.512 83.985,143.96 85.233,143.96C86.705,143.96 88.945,143.352 90.257,140.312C91.217,138.104 91.345,135.512 91.345,133.176M89.297,132.824C89.297,134.904 89.297,137.464 88.913,139.352C88.241,142.84 86.353,143.448 85.233,143.448C83.185,143.448 81.969,141.688 81.521,139.256C81.169,137.368 81.169,134.616 81.169,132.824C81.169,130.36 81.169,128.312 81.585,126.36C82.193,123.64 83.985,122.808 85.233,122.808C86.545,122.808 88.241,123.672 88.849,126.296C89.265,128.12 89.297,130.264 89.297,132.824" style="fill-rule:nonzero;stroke:black;stroke-width:1px;stroke-linecap:butt;stroke-linejoin:miter;"/>
        </g>
        <g id="text3852" transform="matrix(1,0,0,1,50.5076,633.366)">
            <path id="path3888" d="M107.218,112.134L107.218,111.302L106.258,111.302C103.506,111.302 103.442,110.95 103.442,109.798L103.442,91.686C103.442,91.014 103.41,90.982 102.962,90.982C101.714,92.486 99.826,92.966 98.034,93.03C97.938,93.03 97.778,93.03 97.746,93.094C97.714,93.158 97.714,93.222 97.714,93.894C98.706,93.894 100.37,93.702 101.65,92.934L101.65,109.798C101.65,110.918 101.586,111.302 98.834,111.302L97.874,111.302L97.874,112.134L102.546,112.07L107.218,112.134" style="fill-rule:nonzero;stroke:black;stroke-width:1px;stroke-linecap:butt;stroke-linejoin:miter;"/>
            <path id="path3890" d="M121.906,112.134L121.906,111.302L120.946,111.302C118.194,111.302 118.13,110.95 118.13,109.798L118.13,91.686C118.13,91.014 118.098,90.982 117.65,90.982C116.402,92.486 114.514,92.966 112.722,93.03C112.626,93.03 112.466,93.03 112.434,93.094C112.402,93.158 112.402,93.222 112.402,93.894C113.394,93.894 115.058,93.702 116.338,92.934L116.338,109.798C116.338,110.918 116.274,111.302 113.522,111.302L112.562,111.302L112.562,112.134L117.234,112.07L121.906,112.134" style="fill-rule:nonzero;stroke:black;stroke-width:1px;stroke-linecap:butt;stroke-linejoin:miter;"/>
        </g>
        <g id="path3026" transform="matrix(1.94621,0.024073,-0.024073,1.94621,-85.6908,424.186)">
            <path d="M153.377,197.102C153.377,198.812 151.97,200.219 150.26,200.219C148.55,200.219 147.143,198.812 147.143,197.102C147.143,195.392 148.55,193.985 150.26,193.985C151.97,193.985 153.377,195.392 153.377,197.102Z" style="fill:white;fill-rule:nonzero;stroke:black;stroke-width:3.78px;"/>
        </g>
        <path id="path3946-9" d="M284.966,801.317C288.984,802.117 292.946,801.509 297.244,801.752C293.13,802.844 289.127,803.041 285.35,804.629C281.097,806.416 277.566,813.117 270.759,804.496C275.655,794.694 280.441,800.417 284.966,801.317L284.966,801.317Z" style="fill-rule:nonzero;stroke:black;stroke-width:1px;"/>
        <path id="path3028-1" d="M207.492,809.354L287.973,802.787L208.65,812.349L207.492,809.354Z" style="fill-rule:nonzero;stroke:black;stroke-width:1px;"/>
    </g>
</svg>
